<svg xmlns="http://www.w3.org/2000/svg" width="45.754" height="45.754" viewBox="0 0 45.754 45.754">
  <g id="event_ttl_bg01" transform="translate(-347.959 -189.501)">
    <path id="パス_27052" data-name="パス 27052" d="M420.881,248.264A14.867,14.867,0,1,1,435.749,233.4,14.884,14.884,0,0,1,420.881,248.264Zm0-25.872a11,11,0,1,0,11,11A11.016,11.016,0,0,0,420.881,222.392Z" transform="translate(-42.035 -21.018)" fill="#fff"/>
    <path id="パス_27053" data-name="パス 27053" d="M422.329,249.16a14.316,14.316,0,1,1,14.316-14.316A14.332,14.332,0,0,1,422.329,249.16Zm0-25.872a11.556,11.556,0,1,0,11.556,11.556A11.569,11.569,0,0,0,422.329,223.288Z" transform="translate(-43.483 -22.466)" fill="#c70e0a"/>
    <path id="パス_27054" data-name="パス 27054" d="M391.854,219.235a14.867,14.867,0,1,1,14.868-14.867A14.884,14.884,0,0,1,391.854,219.235Zm0-25.871a11,11,0,1,0,11,11A11.016,11.016,0,0,0,391.854,193.364Z" transform="translate(-21.018)" fill="#fff"/>
    <path id="パス_27055" data-name="パス 27055" d="M362.826,248.262a14.867,14.867,0,1,1,14.867-14.867A14.884,14.884,0,0,1,362.826,248.262Zm0-25.872a11,11,0,1,0,11,11A11.017,11.017,0,0,0,362.826,222.39Z" transform="translate(0 -21.016)" fill="#fff"/>
    <path id="パス_27056" data-name="パス 27056" d="M364.274,249.158a14.316,14.316,0,1,1,14.315-14.315A14.332,14.332,0,0,1,364.274,249.158Zm0-25.872a11.556,11.556,0,1,0,11.556,11.557A11.569,11.569,0,0,0,364.274,223.286Z" transform="translate(-1.448 -22.465)" fill="#c70e0a"/>
    <path id="パス_27057" data-name="パス 27057" d="M404.583,203.315a11.579,11.579,0,1,1-1.941-4.293,14.862,14.862,0,0,1,3.652.791,14.307,14.307,0,1,0,1.325,6c0-.352-.017-.7-.042-1.046A10.949,10.949,0,0,0,404.583,203.315Z" transform="translate(-22.466 -1.448)" fill="#c70e0a"/>
    <path id="パス_27058" data-name="パス 27058" d="M474.207,234.844h-2.759a11.569,11.569,0,0,0-11.556-11.556v-2.759A14.332,14.332,0,0,1,474.207,234.844Z" transform="translate(-81.045 -22.466)" fill="#c70e0a"/>
    <path id="パス_27059" data-name="パス 27059" d="M429.565,305.652a14.849,14.849,0,0,1-11.223-5.4l2.978-2.461a10.993,10.993,0,0,0,8.307,4Z" transform="translate(-50.961 -78.408)" fill="#fff"/>
    <path id="パス_27060" data-name="パス 27060" d="M430.429,305.529a14.248,14.248,0,0,1-11.229-5.435l2.163-1.713a11.5,11.5,0,0,0,9.066,4.389Z" transform="translate(-51.582 -78.835)" fill="#c70e0a"/>
    <path id="パス_27061" data-name="パス 27061" d="M380.857,204.2l-3.863-.062a14.834,14.834,0,0,1,14.436-14.618l.11,3.862A10.978,10.978,0,0,0,380.857,204.2Z" transform="translate(-21.023 -0.017)" fill="#fff"/>
    <path id="パス_27062" data-name="パス 27062" d="M381.746,205.816h-2.759A14.331,14.331,0,0,1,393.3,191.5v2.759A11.569,11.569,0,0,0,381.746,205.816Z" transform="translate(-22.466 -1.448)" fill="#c70e0a"/>
    <path id="パス_27063" data-name="パス 27063" d="M391.852,277.29a14.867,14.867,0,1,1,14.868-14.867A14.884,14.884,0,0,1,391.852,277.29Zm0-25.871a11,11,0,1,0,11,11A11.016,11.016,0,0,0,391.852,251.419Z" transform="translate(-21.016 -42.035)" fill="#fff"/>
    <path id="パス_27064" data-name="パス 27064" d="M393.3,278.187a14.315,14.315,0,1,1,14.316-14.315A14.332,14.332,0,0,1,393.3,278.187Zm0-25.871a11.556,11.556,0,1,0,11.556,11.556A11.569,11.569,0,0,0,393.3,252.315Z" transform="translate(-22.465 -43.483)" fill="#c70e0a"/>
    <path id="パス_27065" data-name="パス 27065" d="M409.883,248.262l-3.863-.062a14.735,14.735,0,0,1,3.133-8.891l3.047,2.375A10.9,10.9,0,0,0,409.883,248.262Z" transform="translate(-42.039 -36.064)" fill="#fff"/>
    <path id="パス_27066" data-name="パス 27066" d="M410.772,248.747h-2.759a14.347,14.347,0,0,1,3.2-9.018l2.142,1.739A11.579,11.579,0,0,0,410.772,248.747Z" transform="translate(-43.482 -36.368)" fill="#c70e0a"/>
    <path id="パス_27067" data-name="パス 27067" d="M460.369,254.829l-2.606-2.852a10.9,10.9,0,0,0,3.581-7.943l3.863.062A14.922,14.922,0,0,1,460.369,254.829Z" transform="translate(-79.504 -39.485)" fill="#fff"/>
    <path id="パス_27068" data-name="パス 27068" d="M459.576,254.339l-1.776-2.112a11.538,11.538,0,0,0,4.124-8.849h2.759A14.29,14.29,0,0,1,459.576,254.339Z" transform="translate(-79.531 -39.01)" fill="#c70e0a"/>
    <path id="パス_27069" data-name="パス 27069" d="M362.6,288.111a14.835,14.835,0,0,1-14.619-14.435l3.862-.11a10.978,10.978,0,0,0,10.819,10.683Z" transform="translate(-0.016 -60.868)" fill="#fff"/>
    <path id="パス_27070" data-name="パス 27070" d="M364.274,286.722a14.332,14.332,0,0,1-14.315-14.315h2.759a11.569,11.569,0,0,0,11.556,11.556Z" transform="translate(-1.448 -60.029)" fill="#c70e0a"/>
    <path id="パス_27071" data-name="パス 27071" d="M432.133,316.769l-.11-3.862a10.978,10.978,0,0,0,10.683-10.819l3.863.062A14.835,14.835,0,0,1,432.133,316.769Z" transform="translate(-60.867 -81.519)" fill="#fff"/>
    <path id="パス_27072" data-name="パス 27072" d="M430.863,315.748v-2.759a11.569,11.569,0,0,0,11.556-11.556h2.759A14.332,14.332,0,0,1,430.863,315.748Z" transform="translate(-60.027 -81.045)" fill="#c70e0a"/>
  </g>
</svg>
