<!--?xml version="1.0" encoding="utf-8"?-->
<!-- Generator: Adobe Illustrator 18.1.1, SVG Export Plug-In . SVG Version: 6.00 Build 0)  -->

<svg version="1.1" id="_x32_" xmlns="http://www.w3.org/2000/svg" xmlns:xlink="http://www.w3.org/1999/xlink" x="0px" y="0px" viewBox="0 0 512 512" style="width: 48px; height: 48px; opacity: 1;" xml:space="preserve">
<style type="text/css">
	.st0{fill:#4B4B4B;}
</style>
<g>
	<path class="st0" d="M256.036,0c0.012,0,0.024,0,0.036,0h0.004C256.059,0,256.048,0,256.036,0z" style="fill: rgb(223, 86, 86);"></path>
	<path class="st0" d="M256.075,0c89.66,0.048,162.996,69.894,168.576,158.164c0.229,3.586,0.343,7.194,0.343,10.834
		c0,17.342-2.614,34.051-7.466,49.797c-28.515-10.408-59.372-8.789-86.007,3.096c-21.329,9.523-39.958,25.608-52.525,47.396
		c-12.457,21.558-17.108,45.469-14.842,68.504c2.878,29.202,16.887,56.943,40.246,76.582c5.089,4.28,10.625,8.189,16.587,11.624
		c48.079,27.757,107.905,16.764,143.29-23.319C415.462,465.496,328.271,486.114,256,450.279c-3.214-1.595-6.396-3.301-9.543-5.117
		c-14.778-8.52-27.769-18.944-38.86-30.789c23.362-19.639,37.367-47.38,40.25-76.582c2.262-23.035-2.389-46.946-14.842-68.52
		c-12.568-21.772-31.196-37.857-52.525-47.38c-26.636-11.885-57.492-13.504-86.016-3.096c-6.191,2.266-12.271,5.078-18.174,8.497
		C27.706,255.341,7.4,313.556,25.38,364.615c-31.472-74.182-5.903-161.321,61.97-206.452c2.993-1.974,6.057-3.885,9.207-5.71
		c14.85-8.576,30.47-14.64,46.35-18.312c5.136,30.118,22.02,56.24,45.769,73.495c18.905,13.717,42.173,21.818,67.324,21.818
		c25.151,0,48.419-8.102,67.324-21.818c23.749-17.254,40.633-43.377,45.77-73.495c1.07-6.302,1.63-12.792,1.63-19.418
		c0-63.34-51.321-114.676-114.652-114.724c-0.024,0-0.048,0-0.071,0C114.613,0,0,114.606,0,255.996C0,397.379,114.613,512,256,512
		s256-114.621,256-256.004C512,114.629,397.427,0.04,256.075,0z" style="fill: rgb(223, 86, 86);"></path>
</g>
</svg>
