<!--?xml version="1.0" encoding="utf-8"?-->
<!-- Generator: Adobe Illustrator 18.1.1, SVG Export Plug-In . SVG Version: 6.00 Build 0)  -->

<svg version="1.1" id="_x32_" xmlns="http://www.w3.org/2000/svg" xmlns:xlink="http://www.w3.org/1999/xlink" x="0px" y="0px" viewBox="0 0 512 512" style="width: 48px; height: 48px; opacity: 1;" xml:space="preserve">
<style type="text/css">
	.st0{fill:#4B4B4B;}
</style>
<g>
	<path class="st0" d="M150.588,67.761v-7.53h-39.53V18.195H39.53v42.036H0v391.53h39.53v42.044h71.529v-7.529v-34.515h39.53v-7.53
		H512V67.761H150.588z M54.588,33.254H96v26.978H54.588V33.254z M96,478.746H54.588v-26.985H96V478.746z M99.993,376.937H50.596
		V135.055h49.397V376.937z M459.294,406.585H150.588V105.408h308.706V406.585z" style="fill: rgb(253, 157, 157);"></path>
	<rect x="381.485" y="160.408" class="st0" width="15.059" height="203.294" style="fill: rgb(253, 157, 157);"></rect>
	<rect x="321.25" y="160.408" class="st0" width="15.059" height="158.118" style="fill: rgb(253, 157, 157);"></rect>
	<rect x="261.015" y="160.408" class="st0" width="15.059" height="203.294" style="fill: rgb(253, 157, 157);"></rect>
	<rect x="200.779" y="160.408" class="st0" width="15.059" height="128" style="fill: rgb(253, 157, 157);"></rect>
</g>
</svg>
