<!--?xml version="1.0" encoding="utf-8"?-->
<!-- Generator: Adobe Illustrator 18.1.1, SVG Export Plug-In . SVG Version: 6.00 Build 0)  -->

<svg version="1.1" id="_x32_" xmlns="http://www.w3.org/2000/svg" xmlns:xlink="http://www.w3.org/1999/xlink" x="0px" y="0px" viewBox="0 0 512 512" style="width: 48px; height: 48px; opacity: 1;" xml:space="preserve">
<style type="text/css">
	.st0{fill:#4B4B4B;}
</style>
<g>
	<path class="st0" d="M81.342,87.758C36.416,87.758,0,124.174,0,169.1c0,44.918,36.416,81.334,81.342,81.334
		c44.918,0,81.334-36.416,81.334-81.334C162.676,124.174,126.261,87.758,81.342,87.758z M99.364,187.122H63.312V151.07h36.052
		V187.122z" style="fill: rgb(232, 57, 26);"></path>
	<path class="st0" d="M256.004,87.758c-44.926,0-81.342,36.416-81.342,81.342c0,44.918,36.416,81.334,81.342,81.334
		c44.919,0,81.335-36.416,81.335-81.334C337.338,124.174,300.922,87.758,256.004,87.758z M274.026,187.122h-36.052V151.07h36.052
		V187.122z" style="fill: rgb(232, 57, 26);"></path>
	<path class="st0" d="M430.666,250.434c44.918,0,81.334-36.416,81.334-81.334c0-44.926-36.416-81.342-81.334-81.342
		c-44.926,0-81.342,36.416-81.342,81.342C349.323,214.018,385.74,250.434,430.666,250.434z M412.636,151.07h36.052v36.052h-36.052
		V151.07z" style="fill: rgb(232, 57, 26);"></path>
	<path class="st0" d="M81.342,261.565C36.416,261.565,0,297.982,0,342.9c0,44.926,36.416,81.342,81.342,81.342
		c44.918,0,81.334-36.416,81.334-81.342C162.676,297.982,126.261,261.565,81.342,261.565z M99.364,360.938H63.312v-36.06h36.052
		V360.938z" style="fill: rgb(232, 57, 26);"></path>
	<path class="st0" d="M256.004,261.565c-44.926,0-81.342,36.416-81.342,81.335c0,44.926,36.416,81.342,81.342,81.342
		c44.919,0,81.335-36.416,81.335-81.342C337.338,297.982,300.922,261.565,256.004,261.565z M274.026,360.938h-36.052v-36.06h36.052
		V360.938z" style="fill: rgb(232, 57, 26);"></path>
	<path class="st0" d="M430.666,261.565c-44.926,0-81.342,36.416-81.342,81.335c0,44.926,36.416,81.342,81.342,81.342
		c44.918,0,81.334-36.416,81.334-81.342C512,297.982,475.584,261.565,430.666,261.565z M448.688,360.938h-36.052v-36.06h36.052
		V360.938z" style="fill: rgb(232, 57, 26);"></path>
</g>
</svg>
