<!--?xml version="1.0" encoding="utf-8"?-->
<!-- Generator: Adobe Illustrator 18.1.1, SVG Export Plug-In . SVG Version: 6.00 Build 0)  -->

<svg version="1.1" id="_x32_" xmlns="http://www.w3.org/2000/svg" xmlns:xlink="http://www.w3.org/1999/xlink" x="0px" y="0px" viewBox="0 0 512 512" style="width: 48px; height: 48px; opacity: 1;" xml:space="preserve">
<style type="text/css">
	.st0{fill:#4B4B4B;}
</style>
<g>
	<path class="st0" d="M68.518,300.673v42.585h31.877V300.98h36.739v42.278h31.874V300.98h36.74v42.278h31.878V300.98h36.739v42.278
		h31.874V300.98h36.74v42.278h31.882V300.98h36.736v42.278h31.874v-42.585c22.515-6.872,39.52-32.769,39.52-32.769
		c-40.436,0-70.766-33.082-70.766-33.082H99.765c0,0-30.331,33.082-70.763,33.082C29.002,267.904,46.003,293.801,68.518,300.673z" style="fill: rgb(225, 15, 236);"></path>
	<path class="st0" d="M102.98,181.516v41.359h31.878v-41.359h36.661v41.359h31.878v-41.359h36.658v41.359h31.881v-41.359h36.661
		v41.359h31.874v-41.359h36.66v41.359h31.878v-41.359c18.384-10.115,22.979-33.09,22.979-33.09
		c-61.579,2.751-90.174-47.454-90.174-47.454c7.356-19.303-9.188-29.411-9.188-29.411l-14.702,0.92
		c11.947,11.027,1.836,22.982,1.836,22.982h-29.408h-68.714H192.23c0,0-10.112-11.954,1.839-22.982l-14.705-0.92
		c0,0-16.541,10.108-9.192,29.411c0,0-28.592,50.205-90.166,47.454C80.005,148.426,84.6,171.401,102.98,181.516z" style="fill: rgb(225, 15, 236);"></path>
	<polygon class="st0" points="57.454,355.661 57.454,383.918 28.728,383.918 28.728,412.175 0,412.175 0,440.439 172.004,440.439 
		192.572,355.661 	" style="fill: rgb(225, 15, 236);"></polygon>
	<polygon class="st0" points="483.273,412.175 483.273,383.918 454.546,383.918 454.546,355.661 319.41,355.661 339.983,440.439 
		512,440.439 512,412.175 	" style="fill: rgb(225, 15, 236);"></polygon>
	<polygon class="st0" points="210.482,355.661 189.921,440.439 322.073,440.439 301.508,355.661 	" style="fill: rgb(225, 15, 236);"></polygon>
</g>
</svg>
